<svg xmlns="http://www.w3.org/2000/svg" width="282" height="235.726" viewBox="0 0 282 235.726">
  <g id="Group_32" data-name="Group 32" transform="translate(0 0)">
    <path id="Path_4" data-name="Path 4" d="M188.316,754.13c3.912,7.255,12.214,10.369,12.214,10.369s1.96-8.648-1.952-15.9-12.214-10.369-12.214-10.369S184.4,746.876,188.316,754.13Z" transform="translate(-175.211 -529.797)" fill="#2f2e41"/>
    <path id="Path_5" data-name="Path 5" d="M167.793,774.694c7.062,4.249,9.782,12.689,9.782,12.689s-8.731,1.551-15.793-2.7S152,772,152,772,160.731,770.445,167.793,774.694Z" transform="translate(-152 -552.747)" fill="#6c63ff"/>
    <rect id="Rectangle_38" data-name="Rectangle 38" width="44.065" height="0.629" transform="translate(130.069 11.302)" fill="#f2f2f2"/>
    <rect id="Rectangle_39" data-name="Rectangle 39" width="0.629" height="5.823" transform="translate(161.544 11.774)" fill="#f2f2f2"/>
    <rect id="Rectangle_40" data-name="Rectangle 40" width="0.629" height="5.823" transform="translate(142.344 11.774)" fill="#f2f2f2"/>
    <rect id="Rectangle_41" data-name="Rectangle 41" width="44.065" height="0.629" transform="translate(152.416 41.518)" fill="#f2f2f2"/>
    <rect id="Rectangle_42" data-name="Rectangle 42" width="0.629" height="5.823" transform="translate(164.377 35.852)" fill="#f2f2f2"/>
    <rect id="Rectangle_43" data-name="Rectangle 43" width="0.629" height="5.823" transform="translate(183.576 35.852)" fill="#f2f2f2"/>
    <rect id="Rectangle_44" data-name="Rectangle 44" width="44.065" height="0.629" transform="translate(210.959 55.681)" fill="#f2f2f2"/>
    <rect id="Rectangle_45" data-name="Rectangle 45" width="0.629" height="5.823" transform="translate(222.92 50.016)" fill="#f2f2f2"/>
    <rect id="Rectangle_46" data-name="Rectangle 46" width="0.629" height="5.823" transform="translate(242.12 50.016)" fill="#f2f2f2"/>
    <rect id="Rectangle_47" data-name="Rectangle 47" width="44.065" height="0.629" transform="translate(206.553 201.725)" fill="#f2f2f2"/>
    <rect id="Rectangle_48" data-name="Rectangle 48" width="0.629" height="5.823" transform="translate(218.513 196.059)" fill="#f2f2f2"/>
    <rect id="Rectangle_49" data-name="Rectangle 49" width="0.629" height="5.823" transform="translate(237.713 196.059)" fill="#f2f2f2"/>
    <rect id="Rectangle_50" data-name="Rectangle 50" width="44.065" height="0.629" transform="translate(131.328 100.69)" fill="#f2f2f2"/>
    <rect id="Rectangle_51" data-name="Rectangle 51" width="0.629" height="5.823" transform="translate(143.289 95.025)" fill="#f2f2f2"/>
    <rect id="Rectangle_52" data-name="Rectangle 52" width="0.629" height="5.823" transform="translate(162.488 95.025)" fill="#f2f2f2"/>
    <rect id="Rectangle_53" data-name="Rectangle 53" width="44.065" height="0.629" transform="translate(145.177 176.545)" fill="#f2f2f2"/>
    <rect id="Rectangle_54" data-name="Rectangle 54" width="0.629" height="5.823" transform="translate(157.138 170.879)" fill="#f2f2f2"/>
    <rect id="Rectangle_55" data-name="Rectangle 55" width="0.629" height="5.823" transform="translate(176.337 170.879)" fill="#f2f2f2"/>
    <rect id="Rectangle_56" data-name="Rectangle 56" width="44.065" height="0.629" transform="translate(215.681 153.568)" fill="#f2f2f2"/>
    <rect id="Rectangle_57" data-name="Rectangle 57" width="0.629" height="5.823" transform="translate(227.641 147.903)" fill="#f2f2f2"/>
    <rect id="Rectangle_58" data-name="Rectangle 58" width="0.629" height="5.823" transform="translate(246.841 147.903)" fill="#f2f2f2"/>
    <path id="Path_6" data-name="Path 6" d="M199.8,628.974H125.274v-.536h73.992v-26H131.539l-3.29-6.854.483-.232,3.144,6.55H199.8Z" transform="translate(-85.844 -407.963)" fill="#2f2e41"/>
    <circle id="Ellipse_6" data-name="Ellipse 6" cx="5.63" cy="5.63" r="5.63" transform="translate(43.719 222.888)" fill="#3f3d56"/>
    <circle id="Ellipse_7" data-name="Ellipse 7" cx="5.63" cy="5.63" r="5.63" transform="translate(99.213 222.888)" fill="#3f3d56"/>
    <circle id="Ellipse_8" data-name="Ellipse 8" cx="3.485" cy="3.485" r="3.485" transform="translate(166.771 105.466)" fill="#3f3d56"/>
    <path id="Path_7" data-name="Path 7" d="M317.544,536.778h-83.77l-18.126-59.247H336.211l-.11.349Zm-83.373-.536h82.98l18.329-58.175H216.373Z" transform="translate(-195.615 -351.154)" fill="#2f2e41"/>
    <path id="Path_8" data-name="Path 8" d="M171.759,465.56H98.181L82.26,413.015H188.154l-.1.309Z" transform="translate(-56.369 -283.019)" fill="#f2f2f2"/>
    <path id="Path_9" data-name="Path 9" d="M450.336,355.367l-.518-.138,3.538-13.336h20.581v.536H453.769Z" transform="translate(-308.239 -234.283)" fill="#2f2e41"/>
    <rect id="Rectangle_59" data-name="Rectangle 59" width="108.68" height="0.536" transform="translate(25.891 144.338)" fill="#2f2e41"/>
    <rect id="Rectangle_60" data-name="Rectangle 60" width="96.413" height="0.536" transform="translate(31.934 164.092)" fill="#2f2e41"/>
    <rect id="Rectangle_61" data-name="Rectangle 61" width="0.536" height="58.711" transform="translate(80.045 126.645)" fill="#2f2e41"/>
    <rect id="Rectangle_62" data-name="Rectangle 62" width="58.835" height="0.536" transform="matrix(0.065, -0.998, 0.998, 0.065, 100.738, 185.338)" fill="#2f2e41"/>
    <rect id="Rectangle_63" data-name="Rectangle 63" width="0.536" height="58.835" transform="translate(55.516 126.661) rotate(-3.729)" fill="#2f2e41"/>
    <rect id="Rectangle_64" data-name="Rectangle 64" width="282" height="1" transform="translate(0 234.726)" fill="#2f2e41"/>
    <path id="Path_10" data-name="Path 10" d="M747.411,135.941s4.6,13.1,1.77,15.11,9.556,18.468,9.556,18.468L773.6,165.49l-8.14-13.767s-1.062-13.767-1.062-15.782S747.411,135.941,747.411,135.941Z" transform="translate(-560.006 -116.465)" fill="#a0616a"/>
    <path id="Path_11" data-name="Path 11" d="M747.411,135.941s4.6,13.1,1.77,15.11,9.556,18.468,9.556,18.468L773.6,165.49l-8.14-13.767s-1.062-13.767-1.062-15.782S747.411,135.941,747.411,135.941Z" transform="translate(-560.006 -116.465)" opacity="0.1"/>
    <path id="Path_12" data-name="Path 12" d="M721.574,412.9s-1.343,16.789,0,25.519,3.358,32.907,3.358,32.907,0,45.666,7.387,46.338,12.76,1.343,13.431-1.343-3.358-4.029-1.343-5.372,2.686-6.044,0-11.417,0-59.769,0-59.769l12.76,34.25s1.343,28.206,2.686,32.235-1.343,11.417,3.358,12.088,10.073-3.358,12.76-4.7-4.029-1.343-2.686-2.015,5.373-2.686,4.029-3.358-2.686-32.907-2.686-32.907-3.694-68.835-8.395-71.522-7.723,1.941-7.723,1.941Z" transform="translate(-541.893 -300.082)" fill="#2f2e41"/>
    <path id="Path_13" data-name="Path 13" d="M755.431,758.784v5.372s-6.044,14.6,0,14.6,10.745,1.513,10.745-.5V760.127Z" transform="translate(-563.661 -543.883)" fill="#2f2e41"/>
    <path id="Path_14" data-name="Path 14" d="M863.772,758.754v5.372s6.044,14.6,0,14.6-10.745,1.513-10.745-.5V760.1Z" transform="translate(-632.38 -543.863)" fill="#2f2e41"/>
    <circle id="Ellipse_9" data-name="Ellipse 9" cx="12.088" cy="12.088" r="12.088" transform="translate(184.718 5.037)" fill="#a0616a"/>
    <path id="Path_15" data-name="Path 15" d="M762.623,201.9s3.358,10.073,8.73,8.059l5.373-2.015,9.4,64.47s-7.387,10.745-18.132,4.029S762.623,201.9,762.623,201.9Z" transform="translate(-569.51 -162.278)" fill="#6c63ff"/>
    <path id="Path_16" data-name="Path 16" d="M795.418,181.609l3.022-6.38s17.8,8.395,20.483,11.081a10.488,10.488,0,0,1,2.686,6.716l-4.7,16.789s1.343,36.936,1.343,38.279,4.7,8.73,1.343,6.044-4.029-5.372-6.716-1.343-8.73,8.73-8.73,8.73Z" transform="translate(-592.903 -144.002)" fill="#3f3d56"/>
    <path id="Path_17" data-name="Path 17" d="M844.392,349.122l-2.015,18.8s-12.088,10.745-9.4,11.417,4.029-2.015,4.029-2.015,4.7,4.7,7.387,2.015,9.4-28.206,9.4-28.206Z" transform="translate(-618.373 -263.162)" fill="#a0616a"/>
    <path id="Path_18" data-name="Path 18" d="M747.567,76.055c-2.68-.1-5.548-.143-7.807,1.3a11.427,11.427,0,0,0-2.7,2.641c-2.2,2.782-4.1,6.282-3.285,9.734l.949-.37a6.216,6.216,0,0,1-.6,2.663c.134-.389.581.24.462.633l-1.046,3.431a3.23,3.23,0,0,1,4.12,2.458c.12-3.985.533-8.555,3.766-10.888a13.025,13.025,0,0,1,5.679-1.855,11.423,11.423,0,0,1,5.505.028c1.754.6,3.248,2.4,2.85,4.208a1.875,1.875,0,0,1,2.113,1.041,5.47,5.47,0,0,1,.433,2.5c.862.609,1.843-.6,2.195-1.6.825-2.337,1.558-4.824,1.114-7.262s-2.431-4.768-4.909-4.776a1.72,1.72,0,0,0,.448-1.211l-2.042-.173a2.257,2.257,0,0,0,1.349-.711C755.341,78.758,748.893,76.1,747.567,76.055Z" transform="translate(-550.503 -76.014)" fill="#2f2e41"/>
    <path id="Path_19" data-name="Path 19" d="M716.225,178.117s-5.467-5.357-7.434-5.029-4.654,5.029-4.654,5.029-16.118,5.373-15.446,10.745,8.059,31.564,8.059,31.564,6.044,31.564.672,34.921,25.519,12.088,26.191,8.059,2.015-44.323,0-50.367S716.225,178.117,716.225,178.117Z" transform="translate(-519.754 -142.524)" fill="#3f3d56"/>
    <path id="Path_20" data-name="Path 20" d="M850.893,223.236h8.3s5.8,25.519,6.471,28.206,2.015,15.446,1.343,15.446-14.1-2.686-14.1-.672Z" transform="translate(-630.918 -176.899)" fill="#3f3d56"/>
    <path id="Path_21" data-name="Path 21" d="M775.51,334.246H743.721c-3.1-14.271-3.361-28.059,0-41.232H775.51C770.38,305.951,770.06,319.644,775.51,334.246Z" transform="translate(-555.816 -224.714)" fill="#f2f2f2"/>
    <path id="Path_22" data-name="Path 22" d="M707.938,355.345l9.4,4.029s18.132,2.686,18.132-4.7-18.132-3.358-18.132-3.358l-6.044-1.933Z" transform="translate(-532.958 -263.341)" fill="#a0616a"/>
    <path id="Path_23" data-name="Path 23" d="M682.33,210.435l-8.059,2.015-6.044,35.593s-2.015,9.4,1.343,10.073,12.76,6.044,12.76,6.044,1.343-10.073,4.029-10.073l-6.716-5.373,4.029-23.5Z" transform="translate(-505.335 -168.126)" fill="#3f3d56"/>
    <rect id="Rectangle_65" data-name="Rectangle 65" width="44.065" height="0.629" transform="translate(18.963 111.077)" fill="#f2f2f2"/>
    <rect id="Rectangle_66" data-name="Rectangle 66" width="0.629" height="5.823" transform="translate(30.924 105.412)" fill="#f2f2f2"/>
    <rect id="Rectangle_67" data-name="Rectangle 67" width="0.629" height="5.823" transform="translate(50.123 105.412)" fill="#f2f2f2"/>
    <rect id="Rectangle_68" data-name="Rectangle 68" width="44.065" height="0.629" transform="translate(34.386 17.912)" fill="#f2f2f2"/>
    <rect id="Rectangle_69" data-name="Rectangle 69" width="0.629" height="5.823" transform="translate(65.861 18.384)" fill="#f2f2f2"/>
    <rect id="Rectangle_70" data-name="Rectangle 70" width="0.629" height="5.823" transform="translate(46.661 18.384)" fill="#f2f2f2"/>
    <rect id="Rectangle_71" data-name="Rectangle 71" width="44.065" height="0.629" transform="translate(78.765 79.917)" fill="#f2f2f2"/>
    <rect id="Rectangle_72" data-name="Rectangle 72" width="0.629" height="5.823" transform="translate(110.24 80.389)" fill="#f2f2f2"/>
    <rect id="Rectangle_73" data-name="Rectangle 73" width="0.629" height="5.823" transform="translate(91.04 80.389)" fill="#f2f2f2"/>
    <rect id="Rectangle_74" data-name="Rectangle 74" width="44.065" height="0.629" transform="translate(3.855 79.602)" fill="#f2f2f2"/>
    <rect id="Rectangle_75" data-name="Rectangle 75" width="0.629" height="5.823" transform="translate(35.33 80.074)" fill="#f2f2f2"/>
    <rect id="Rectangle_76" data-name="Rectangle 76" width="0.629" height="5.823" transform="translate(16.13 80.074)" fill="#f2f2f2"/>
    <rect id="Rectangle_77" data-name="Rectangle 77" width="44.065" height="0.629" transform="translate(56.733 48.127)" fill="#f2f2f2"/>
    <rect id="Rectangle_78" data-name="Rectangle 78" width="0.629" height="5.823" transform="translate(68.693 42.462)" fill="#f2f2f2"/>
    <rect id="Rectangle_79" data-name="Rectangle 79" width="0.629" height="5.823" transform="translate(87.893 42.462)" fill="#f2f2f2"/>
  </g>
</svg>
