<svg width="188" height="188" viewBox="0 0 188 188" fill="none" xmlns="http://www.w3.org/2000/svg">
<circle cx="100.5" cy="87.5" r="86" fill="#3231CB" stroke="#3230C8" stroke-width="3"/>
<path d="M150.869 153.767L157.065 144.587C157.065 144.587 174.08 138.685 172.892 131.866C171.704 125.046 156.525 131.866 156.525 131.866C156.525 131.866 151.592 123.561 154.443 122.679C154.443 122.679 168.13 117.941 175.271 120.016C182.412 122.091 189.312 137.735 172.913 146.085C172.913 146.085 166.263 150.805 150.869 153.767Z" fill="#E6F8FF"/>
<path d="M19.0981 105.166C19.0981 105.166 29.7124 102.358 26.922 96.8337C25.8487 94.6731 21.6417 93.6764 18.515 96.7447C18.0607 97.1896 17.1377 96.6592 17.4954 96.1324C20.1678 92.1993 20.7151 85.383 16.5009 84.9131C13.639 84.5963 10.498 90.4445 11.5533 94.7727C11.7286 95.4846 10.362 95.9616 10.1975 95.239C8.72 88.768 1.74758 88.0881 0.416777 90.5157C-1.1251 93.3241 1.71539 98.1186 7.2139 99.667C7.79344 99.8307 7.46074 100.795 6.85616 100.788C4.77409 100.767 1.47212 103.009 2.25916 105.892C4.40561 113.766 12.7553 107.704 12.7553 107.704C12.7553 107.704 32.238 142.647 60.2672 128.491L57.5484 122.394C57.5484 122.394 37.944 135.144 19.0981 105.166Z" fill="#E6F8FF"/>
<path d="M12.7589 107.704C12.7589 107.704 32.2416 142.647 60.2708 128.491L59.6447 127.067C30.2883 133.713 12.7589 107.704 12.7589 107.704Z" fill="#E0E9FF"/>
<path d="M12.7589 107.704C6.60931 109.263 3.52914 107.181 2.252 105.832C2.25373 105.852 2.25373 105.872 2.252 105.892C4.41277 113.762 12.7589 107.708 12.7589 107.704Z" fill="#E0E9FF"/>
<path d="M26.922 96.8336C26.6699 96.3561 26.3008 95.9496 25.8487 95.6519C25.9167 101.244 19.0981 105.166 19.0981 105.166C19.0981 105.166 29.7124 102.358 26.922 96.8336Z" fill="#E0E9FF"/>
<path d="M19.0981 105.166C19.0981 105.166 19.0731 105.291 19.2412 105.391L19.0981 105.166Z" fill="#E0E9FF"/>
<path d="M17.4954 96.1325C20.0927 92.3096 20.6901 85.7674 16.8479 84.9701C19.2341 89.0243 17.4954 96.1325 17.4954 96.1325Z" fill="#E0E9FF"/>
<path d="M6.95632 99.5851C2.48453 96.2036 0.237905 91.0709 0.198553 91.0175C-0.770931 93.8153 1.94076 98.0545 6.95632 99.5851Z" fill="#E0E9FF"/>
<path d="M21.7669 111.139C26.6859 118.144 31.3007 120.86 30.918 121.383C30.5352 121.906 24.5036 119.735 20.987 114.499C18.5078 110.808 17.7888 106.394 18.3075 106.174C18.6831 106.021 19.6276 108.089 21.7669 111.139Z" fill="white"/>
<path d="M7.48936 93.0144C7.53587 93.0998 8.46242 94.8439 8.04386 95.1821C7.28187 95.7943 2.29135 91.6796 2.79934 90.7399C3.04261 90.2879 4.56302 90.5868 5.486 91.0175C6.35807 91.4434 7.0629 92.146 7.48936 93.0144V93.0144Z" fill="white"/>
<path d="M12.7589 90.9891C12.6766 91.5942 12.5049 92.8613 13.0702 93.1852C13.7856 93.5803 15.4742 92.4734 16.0859 90.9891C16.8014 89.2663 16.0502 86.9954 15.1916 86.8566C14.2579 86.7071 13.0165 89.0207 12.7589 90.9891Z" fill="white"/>
<path d="M21.3233 96.1823C20.1392 96.5952 18.7726 97.663 18.9801 98.2895C19.2627 99.1615 22.672 99.5103 23.552 98.0688C23.8883 97.5171 23.9098 96.6237 23.4411 96.1823C22.8723 95.6412 21.817 96.0079 21.3233 96.1823Z" fill="white"/>
<path d="M8.33005 103.433C8.41949 104.091 7.36057 104.789 6.59142 105.063C5.19622 105.561 3.3288 105.181 3.13204 104.397C2.96033 103.686 4.10153 102.678 5.25346 102.401C6.58069 102.077 8.22631 102.668 8.33005 103.433Z" fill="white"/>
<path d="M172.913 146.085C189.312 137.735 182.412 122.088 175.271 120.016C174.995 119.934 174.709 119.87 174.416 119.81C177.908 123.412 181.785 129.509 177.636 135.211C172.792 141.9 160.192 146.815 154.164 148.862L150.855 153.767C166.263 150.805 172.913 146.085 172.913 146.085Z" fill="#E0E9FF"/>
<path d="M154.715 128.32C155.253 129.539 155.858 130.727 156.525 131.88C156.525 131.88 168.867 126.309 172.162 130.225C172.162 130.225 168.184 124.886 154.715 128.32Z" fill="#E0E9FF"/>
<path d="M170.241 72.6367C167.186 33.127 142.101 26.0544 130.943 26.0615C117.553 26.0615 110.004 38.5836 100.177 38.5836C90.3498 38.5836 83.6422 26.4531 68.0195 26.0082C52.3969 25.5632 34.9998 43.3354 30.5352 73.9857C27.8414 92.4947 39.121 105.148 48.5046 112.289C43.2377 122.192 41.4592 133.567 43.4533 144.594C47.6174 167.688 66.3489 185.453 84.236 186.93C102.123 188.407 86.9155 167.688 87.2124 154.956C87.4342 145.48 94.3673 139.266 99.1146 139.266H101.44C106.201 139.266 113.12 145.48 113.342 154.956C113.639 167.688 98.4635 188.414 116.318 186.93C134.173 185.446 152.916 167.688 157.101 144.594C159.181 133.061 157.14 121.168 151.331 110.975C162.757 103.401 171.647 90.8467 170.241 72.6367Z" fill="#E6F8FF"/>
<path d="M43.4533 144.587C44.3273 149.401 45.8394 154.079 47.9501 158.497C47.0808 136.183 55.6523 114.983 55.6523 114.983L57.0261 111.929L48.5046 112.285C43.2385 122.188 41.46 133.561 43.4533 144.587V144.587Z" fill="#E0E9FF"/>
<path d="M68.0267 26.0082C66.6607 25.9737 65.2946 26.0738 63.9484 26.3072C68.5991 28.4891 73.9974 32.0699 80.0468 37.6973C94.0346 50.7248 108.988 35.6578 108.992 35.6578C106.112 37.3449 103.268 38.573 100.181 38.573C90.3677 38.5836 83.6493 26.4531 68.0267 26.0082Z" fill="#E0E9FF"/>
<path d="M31.2113 69.9991C30.9645 71.3019 30.7319 72.6224 30.5352 73.9786C27.8414 92.4876 39.121 105.141 48.5046 112.282C54.2285 113.833 57.806 114.467 67.0715 114.389C72.5986 114.342 80.5441 113.179 83.9212 111.929C77.5105 110.943 64.0879 104.81 50.9695 94.5236C42.6062 87.9386 35.8511 79.5539 31.2113 69.9991V69.9991Z" fill="#E0E9FF"/>
<path d="M133.909 111.716C133.909 111.716 146.838 160.369 117.524 186.777C135.003 184.609 152.994 167.143 157.065 144.576C159.145 133.043 157.104 121.15 151.295 110.957C162.743 103.39 171.647 90.836 170.255 72.626C167.2 33.1164 142.115 26.0438 130.957 26.0509C130.102 26.0513 129.248 26.1048 128.399 26.2111C139.955 38.7474 164.535 72.8147 133.909 111.716Z" fill="#E0E9FF"/>
<path d="M91.4159 185.328C96.5424 180.313 86.9549 165.093 87.1946 154.948C87.3949 146.363 93.0973 140.451 97.7086 139.419C63.3009 143.932 82.7764 174.322 91.4159 185.328Z" fill="#E0E9FF"/>
<path d="M133.909 111.716C133.909 111.716 120.966 113.268 111.371 111.716C111.371 111.716 140.738 106.266 148.036 81.2362C148.036 81.2469 150.869 109.06 133.909 111.716Z" fill="#E0E9FF"/>
<path d="M38.6917 67.3153C38.8491 68.2087 40.3839 76.2495 45.8466 78.1716C53.4844 80.8625 65.1647 70.2874 69.3432 59.0254C73.0065 49.1231 72.2051 34.9993 66.3667 32.6857C57.8346 29.2793 35.6044 49.9596 38.6917 67.3153Z" fill="white"/>
<path d="M132.424 67.3153C134.048 72.7577 136.359 80.4603 138.967 80.3428C141.471 80.2289 143.75 72.9107 143.822 66.728C143.983 52.4369 132.503 39.0499 129.154 40.3883C125.502 41.8156 130.542 61.0223 132.424 67.3153Z" fill="white"/>
<path d="M115.163 104.618C116.236 106.661 128.546 104.896 134.506 96.9227C137.59 92.7937 138.981 86.9918 137.483 85.9667C136.23 85.1125 133.061 87.7464 126.768 93.0856C118.608 99.9695 114.53 103.419 115.163 104.618Z" fill="white"/>
<path d="M66.1092 142.522C61.6159 152.393 73.0029 163.904 74.695 163.238C75.8541 162.783 72.1372 156.732 74.3981 149.029C77.1134 139.775 85.9997 136.525 85.1089 134.816C84.0786 132.834 70.1696 133.61 66.1092 142.522Z" fill="white"/>
<path d="M120.518 157.91C116.268 171.888 110.58 180.936 112.487 182.189C114.108 183.257 120.103 177.946 124.092 172.429C133.841 158.931 132.471 142.914 131.827 135.411C131.111 126.925 128.782 116.653 127.065 116.759C124.818 116.895 127.616 134.581 120.518 157.91Z" fill="white"/>
<path d="M174.817 123.27C174.745 124.312 170.145 124.789 168.123 124.9C164.546 125.096 159.305 124.683 159.18 123.569C159.076 122.526 163.433 120.806 167.662 120.902C171.193 120.97 174.888 122.326 174.817 123.27Z" fill="white"/>
<path d="M157.241 143.558C157.241 143.558 149.199 144.366 155.348 150.652C155.348 150.652 148.294 150.104 153.413 156.653C153.413 156.653 158.325 149.214 157.241 143.558Z" fill="#E6F8FF"/>
<path d="M157.251 143.558C157.251 143.558 154.032 140.739 157.738 139.287C157.738 139.291 159.387 141.259 157.251 143.558Z" fill="#E6F8FF"/>
<path d="M77.8145 66.7877C79.6943 63.3473 78.4151 59.0422 74.9573 57.1718C71.4995 55.3015 67.1725 56.5743 65.2928 60.0147C63.413 63.4551 64.6922 67.7603 68.15 69.6306C71.6078 71.5009 75.9348 70.2281 77.8145 66.7877Z" fill="#46006A"/>
<path d="M71.597 61.695C71.7567 62.2297 71.7535 62.7996 71.5876 63.3325C71.4217 63.8653 71.1007 64.3373 70.6651 64.6885C70.2295 65.0398 69.699 65.2545 69.1406 65.3056C68.5823 65.3567 68.0213 65.2418 67.5286 64.9756C67.036 64.7093 66.6338 64.3035 66.373 63.8097C66.1122 63.3158 66.0045 62.7561 66.0636 62.2014C66.1226 61.6466 66.3458 61.1218 66.7048 60.6933C67.0638 60.2648 67.5425 59.9519 68.0803 59.7943C68.8 59.5833 69.5744 59.6649 70.2336 60.0212C70.8928 60.3776 71.3831 60.9795 71.597 61.695V61.695Z" fill="white"/>
<path d="M132.853 67.1346C134.733 63.6942 133.454 59.389 129.996 57.5187C126.538 55.6484 122.211 56.9212 120.331 60.3616C118.451 63.802 119.731 68.1071 123.188 69.9774C126.646 71.8477 130.973 70.5749 132.853 67.1346Z" fill="#46006A"/>
<path d="M126.693 61.3461C126.852 61.8801 126.848 62.4489 126.682 62.9807C126.516 63.5125 126.195 63.9833 125.76 64.3336C125.325 64.6839 124.795 64.898 124.238 64.9489C123.681 64.9997 123.121 64.885 122.629 64.6192C122.137 64.3533 121.735 63.9484 121.475 63.4556C121.215 62.9627 121.107 62.4041 121.165 61.8503C121.224 61.2965 121.446 60.7724 121.804 60.3444C122.162 59.9163 122.64 59.6035 123.176 59.4454C123.533 59.3405 123.906 59.3064 124.276 59.3451C124.646 59.3838 125.004 59.4946 125.33 59.6711C125.657 59.8476 125.945 60.0864 126.179 60.3738C126.413 60.6612 126.588 60.9916 126.693 61.3461V61.3461Z" fill="white"/>
<path d="M98.95 82.5283C96.8434 82.5267 94.7587 82.1018 92.8211 81.2791C90.8835 80.4565 89.1328 79.253 87.6739 77.7409C84.7011 74.5908 84.372 69.6396 84.3577 69.4296C84.3521 69.1079 84.4715 68.7963 84.691 68.56C84.9106 68.3236 85.2133 68.1807 85.5362 68.161C85.859 68.1413 86.1771 68.2462 86.424 68.4541C86.671 68.6619 86.8278 68.9565 86.8619 69.2766C86.8619 69.3193 87.1588 73.5479 89.4984 76.0395C93.5302 80.3108 101.265 82.0158 107.657 76.7798C109.16 75.5518 110.659 72.957 110.623 69.9244C110.619 69.76 110.648 69.5965 110.708 69.4433C110.768 69.29 110.858 69.15 110.972 69.0313C111.086 68.9126 111.223 68.8175 111.374 68.7515C111.526 68.6854 111.689 68.6498 111.854 68.6466C112.185 68.6474 112.504 68.7769 112.741 69.0075C112.978 69.2382 113.115 69.5518 113.124 69.8817C113.17 74.0035 111.063 77.207 109.242 78.6948C105.965 81.3893 102.363 82.5283 98.95 82.5283Z" fill="#46006A"/>
</svg>
